<?xml version="1.0" encoding="UTF-8" standalone="no"?>
<svg width="189px" height="79px" viewBox="0 0 189 79" version="1.1" xmlns="http://www.w3.org/2000/svg" xmlns:xlink="http://www.w3.org/1999/xlink">
    <!-- Generator: Sketch 43.2 (39069) - http://www.bohemiancoding.com/sketch -->
    <title>back</title>
    <desc>Created with Sketch.</desc>
    <defs></defs>
    <g id="Page-1" stroke="none" stroke-width="1" fill="none" fill-rule="evenodd">
        <g id="back" stroke="#000000">
            <g id="backer-head" transform="translate(93.751340, 40.995956) scale(-1, 1) rotate(-3.000000) translate(-93.751340, -40.995956) translate(3.751340, 2.495956)">
                <g id="eye" transform="translate(0.000000, 22.000000)">
                    <path d="M68.0535133,0.597023744 C74.2343829,0.42141099 80.6315655,0.302921961 87.9321315,1.78279194 C103.731495,4.98542085 101.198959,39.5358847 84.954331,39.6178277 C80.2211541,39.6417033 75.5730376,36.6711522 70.9132091,37.5015332 C62.5038066,39.0000878 59.6924202,48.1494073 50.3516456,42.4575147 C44.3808641,38.8191605 39.9596989,31.7023488 33.0571157,30.5878089 C33.0571157,30.5878089 26.8691087,31.135455 21.9522855,32.1446303 C17.0354624,33.1538056 8.3044591,35.6682783 8.3044591,35.6682783 C7.08722691,35.4717354 5.66224455,35.7315879 4.66520047,35.0062008 C-2.13397748,30.0595429 -0.229663699,17.4912396 3.54881038,11.9331857 C6.07964231,8.21038654 11.7632776,6.06953729 15.4119513,4.9195694 C21.1920275,4.49685012 25.6490525,5.19909683 26.8028415,5.47514836 C30.2974543,6.31125726 34.3145783,6.85529588 38.7960722,6.85529588 C41.2898399,6.85529588 44.725425,7.4783165 48.3108351,6.85529588 C51.8962452,6.23227526 53.176408,5.03668509 54.9733262,4.2638185 C58.5619874,2.72031129 63.359624,1.28913904 68.0535133,0.597023744 Z M90.9129921,15.4988229 C86.3403435,10.57042 83.9755787,8.48700599 80.4126618,8.42710112 C77.8895318,8.38467863 76.4374285,8.37050308 73.9481829,9.12785549 C71.4589372,9.88520791 72.0237181,10.1319533 70.3228395,10.6143567 C70.2065345,10.6473432 67.7591006,12.2381147 66.5392284,13.5746393 C64.9412861,15.3253875 64.3671755,17.0045052 62.9938275,17.8473908 C60.572063,19.3337369 53.0193919,20.8190841 58.0243688,25.6077252 C66.6028745,33.8154323 91.5501466,38.9711822 91.5501466,16.6441978 L90.9129921,15.4988229 Z" id="Combined-Shape" fill="#000000"></path>
                    <path d="M68.5,24 C70.9852814,24 73,21.9852814 73,19.5 C73,17.0147186 70.9852814,15 68.5,15 C67.7178273,15 66.9822639,15.1995577 66.3414459,15.5505369 C64.9461239,16.3147617 64,17.7968913 64,19.5 C64,21.9852814 66.0147186,24 68.5,24 Z" id="Oval" stroke-width="4" fill="#FFFFFF"></path>
                </g>
                <path d="M2.84217094e-14,8.94586506 C30.6174593,8.94586506 47.1567032,-7.24082077 85.2511683,3.9325558 C116.183938,13.0053563 103.193942,21.8147279 125.106458,36.715239 C129.393287,39.6302825 149.060649,43.7306266 160.90435,44.9075075 C172.748051,46.0843883 174.884351,44.47324 178.534775,48.1508222 C179.783029,52.0225487 178.992977,59.0367133 175.878069,64.7337169 C172.763161,70.4307205 168.485166,73.3890358 166.420098,74.231056 C155.00236,78.8865752 148.395683,74.4907299 148.395683,74.4907299" id="Path-3" stroke-width="6" stroke-linecap="round" stroke-linejoin="round"></path>
                <ellipse id="Oval-2" stroke-width="4" cx="70" cy="42.5" rx="6" ry="5.5"></ellipse>
            </g>
            <path d="M12.7543921,44.965916 C12.7543921,44.965916 25.2848773,43.8550391 25.7928636,45.3338143 C26.3008498,46.8125895 25.7367125,47.9660642 25.5598532,48.3727452 C25.3829939,48.7794261 23.947763,50.6488267 23.3042638,51.153718 C21.8120946,52.3244781 19.5956689,53.4274972 17.923391,54.0322009 C15.2722954,54.9908499 14.3549415,55 12.7543921,55 C11.1538427,55 7.54049702,53.3014938 7.54049702,53.3014938 L4.31813264,48.1498234 L12.7543921,44.965916 Z" id="Polygon" fill="#000000"></path>
        </g>
    </g>
</svg>