<?xml version="1.0" encoding="UTF-8" standalone="no"?>
<svg width="189px" height="79px" viewBox="0 0 189 79" version="1.1" xmlns="http://www.w3.org/2000/svg" xmlns:xlink="http://www.w3.org/1999/xlink">
    <!-- Generator: Sketch 46.1 (44463) - http://www.bohemiancoding.com/sketch -->
    <title>Artboard</title>
    <desc>Created with Sketch.</desc>
    <defs></defs>
    <g id="Page-1" stroke="none" stroke-width="1" fill="none" fill-rule="evenodd">
        <g id="Artboard" stroke="#000000">
            <g id="eye" transform="translate(20.000000, 25.000000)">
                <path d="M68.0535133,0.597023744 C74.2343829,0.42141099 80.6315655,0.302921961 87.9321315,1.78279194 C103.731495,4.98542085 101.198959,39.5358847 84.954331,39.6178277 C80.2211541,39.6417033 75.5730376,36.6711522 70.9132091,37.5015332 C62.5038066,39.0000878 59.6924202,48.1494073 50.3516456,42.4575147 C44.3808641,38.8191605 39.9596989,31.7023488 33.0571157,30.5878089 C33.0571157,30.5878089 26.8691087,31.135455 21.9522855,32.1446303 C17.0354624,33.1538056 8.3044591,35.6682783 8.3044591,35.6682783 C7.08722691,35.4717354 5.66224455,35.7315879 4.66520047,35.0062008 C-2.13397748,30.0595429 -0.229663699,17.4912396 3.54881038,11.9331857 C6.07964231,8.21038654 11.7632776,6.06953729 15.4119513,4.9195694 C21.1920275,4.49685012 25.6490525,5.19909683 26.8028415,5.47514836 C30.2974543,6.31125726 34.3145783,6.85529588 38.7960722,6.85529588 C41.2898399,6.85529588 44.725425,7.4783165 48.3108351,6.85529588 C51.8962452,6.23227526 53.176408,5.03668509 54.9733262,4.2638185 C58.5619874,2.72031129 63.359624,1.28913904 68.0535133,0.597023744 Z M91,16 C89,13 89,13 88,12 C86,10 82.8770589,9.04837325 80,9 C77.47687,8.95757751 76.7008787,9.51759657 75,10 C74.883695,10.0329864 69.2198722,12.6634754 68,14 C66.4020577,15.7507482 64.3671755,17.0045052 62.9938275,17.8473908 C60.572063,19.3337369 53.0193919,20.8190841 58.0243688,25.6077252 C66.6028745,33.8154323 91.5501466,38.9711822 91.5501466,16.6441978 L91,16 Z" id="Combined-Shape" fill="#000000"></path>
                <path d="M68.5,24 C70.9852814,24 73,21.9852814 73,19.5 C73,17.0147186 70.9852814,15 68.5,15 C67.7178273,15 66.9822639,15.1995577 66.3414459,15.5505369 C64.9461239,16.3147617 64,17.7968913 64,19.5 C64,21.9852814 66.0147186,24 68.5,24 Z" id="Oval" stroke-width="4" fill="#FFFFFF"></path>
            </g>
            <path d="M20,11.9458651 C50.6174593,11.9458651 67.1567032,-4.24082077 105.251168,6.9325558 C136.183938,16.0053563 123.193942,24.8147279 145.106458,39.715239 C149.393287,42.6302825 157.354048,44.7072541 168.873777,45.8453231 C170.337013,45.9898807 179.546579,47.7895343 180.90435,47.9075075" id="Path-3" stroke-width="6" stroke-linecap="round" stroke-linejoin="round"></path>
            <ellipse id="Oval-2" stroke-width="4" cx="90" cy="45.5" rx="6" ry="5.5"></ellipse>
        </g>
    </g>
</svg>