<?xml version="1.0" encoding="UTF-8" standalone="no"?>
<svg width="503px" height="224px" viewBox="0 0 503 224" version="1.1" xmlns="http://www.w3.org/2000/svg" xmlns:xlink="http://www.w3.org/1999/xlink">
    <!-- Generator: Sketch 43.2 (39069) - http://www.bohemiancoding.com/sketch -->
    <title>frames_header</title>
    <desc>Created with Sketch.</desc>
    <defs></defs>
    <g id="Page-1" stroke="none" stroke-width="1" fill="none" fill-rule="evenodd">
        <g id="frames_header" fill="#000000">
            <path d="M222.383157,169.53951 L223.399532,188.933108 L210.936636,189.58626 L210.848104,187.896979 C202.792701,201.492971 202.174169,203.176071 189.143017,209.543768 C180.789159,213.625895 140.387526,216.807331 114.24858,208.69233 C109.499558,207.217967 87.5593195,205.639809 86.5275621,190.501329 C83.1990094,141.66308 61.9221737,156.953292 41.4466628,158.57778 C27.7769722,159.662307 19.004389,129.112886 43.1720941,112.214264 C67.3397992,95.3156426 104.575122,117.072236 127.137574,97.7110336 C149.700026,78.3498312 127.99616,64.9844625 122.169216,51.8521061 C116.342273,38.7197497 137.295623,23.8848549 151.678284,17.0120698 C166.060944,10.1392848 215.698156,22.4891174 226.016729,29.8259017 C242.426525,41.4937088 237.453726,42.8248231 265.477906,45.1679221 C293.502085,47.5110212 301.726156,42.1563434 304.89118,40.1666089 C308.056205,38.1768744 316.286894,34.5703823 325.759143,37.4630132 C335.231392,40.3556441 350.20976,50.245979 352.367972,54.6650491 C354.526183,59.0841192 357.747665,65.8706374 357.971355,77.3022447 C358.195046,88.7338521 357.971355,94.6489934 353.380938,106.432271 C348.790521,118.215549 338.02914,127.998891 319.027324,131.109368 C300.025508,134.219845 285.255493,114.157095 271.254825,119.875797 C258.744978,124.98556 237.377977,147.797722 222.383157,169.53951 Z M151,118.994358 L154.853601,192.525448 L167.939643,191.839637 L166.317647,160.890111 L198.721178,159.191914 L198.144226,148.183022 L165.740695,149.881219 L164.684765,129.732869 L199.061588,127.931256 L198.462865,116.506934 L151,118.994358 Z M222.383157,169.53951 L222.000697,162.241737 C221.953525,161.341635 222.063118,160.120905 222.329481,158.579511 C222.595845,157.038118 223.175587,155.515037 224.068727,154.010224 C224.961867,152.505411 226.246686,151.188377 227.923223,150.059081 C229.599759,148.929784 231.857386,148.290759 234.696172,148.141984 C235.250081,148.112955 235.823106,148.117638 236.415263,148.156033 C237.00742,148.194429 237.724363,148.295711 238.566113,148.459883 L237.967389,137.035561 C237.5447,136.918856 237.055501,136.857709 236.499777,136.852119 C235.944054,136.846528 235.423864,136.856433 234.939194,136.881834 C231.615738,137.056009 228.75493,138.108499 226.356683,140.039335 C223.958436,141.970172 222.143154,144.425851 220.910784,147.406448 L220.703069,147.417334 L220.267634,139.108736 L208.324025,139.734674 L210.848104,187.896979 C212.5904,184.956313 214.680601,181.458351 217.319546,177.235155 C218.899736,174.706323 220.596198,172.130517 222.383157,169.53951 Z M279.565978,179.636843 L279.254405,179.653172 C278.124226,181.934124 276.211585,183.856841 273.516426,185.421379 C270.821267,186.985918 267.708148,187.860704 264.176976,188.045765 C262.169055,188.150996 260.06101,188.00112 257.852777,187.596132 C255.644545,187.191144 253.591296,186.430903 251.692971,185.315386 C249.794645,184.199868 248.187959,182.687232 246.872867,180.777431 C245.557774,178.867631 244.824037,176.458755 244.671634,173.550731 C244.475687,169.811843 245.375531,166.779289 247.371194,164.452979 C249.366856,162.126668 251.995532,160.287924 255.257301,158.936692 C258.51907,157.58546 262.165152,156.613314 266.195656,156.020226 C270.22616,155.427137 274.180035,155.028997 278.0574,154.825793 L277.992085,153.579503 C277.828796,150.463764 276.583034,148.220577 274.254761,146.849877 C271.926489,145.479177 269.204524,144.87548 266.088784,145.038769 C263.457715,145.176658 260.959571,145.863002 258.594276,147.097823 C256.228981,148.332644 254.291847,149.788007 252.782817,151.463955 L245.946319,144.219822 C248.647216,141.439978 251.815279,139.295255 255.450603,137.785588 C259.085927,136.275921 262.807596,135.421313 266.615723,135.221737 C271.046997,134.989504 274.731939,135.421235 277.670659,136.516942 C280.609379,137.612649 282.962183,139.120897 284.729141,141.04173 C286.4961,142.962564 287.773759,145.152008 288.562158,147.610128 C289.350556,150.068247 289.810064,152.543566 289.940695,155.036158 L291.530034,185.362539 L279.897997,185.972149 L279.565978,179.636843 Z M278.498278,163.238248 L275.694126,163.385208 C273.686205,163.490438 271.578994,163.687657 269.372428,163.976871 C267.165862,164.266084 265.14331,164.753934 263.30471,165.440436 C261.466109,166.126938 259.951806,167.039433 258.761754,168.177948 C257.571702,169.316463 257.025671,170.820419 257.123644,172.689863 C257.185331,173.86692 257.49668,174.839949 258.057699,175.608979 C258.618718,176.378009 259.32735,176.983078 260.183614,177.424205 C261.039879,177.865332 261.992729,178.162534 263.042195,178.31582 C264.091661,178.469107 265.135668,178.518534 266.174248,178.464105 C270.467045,178.239129 273.661342,176.926164 275.757234,174.525172 C277.853125,172.124179 278.797641,168.950429 278.590808,165.003825 L278.498278,163.238248 Z M364.449461,130.094489 C367.703678,129.923942 370.520428,130.349102 372.899796,131.36998 C375.279164,132.390858 377.26212,133.796991 378.848725,135.588419 C380.435329,137.379846 381.638308,139.469062 382.457697,141.856129 C383.277086,144.243196 383.753904,146.717607 383.888164,149.279438 L385.521045,180.436679 L373.058149,181.089832 L371.610327,153.463744 C371.534125,152.009733 371.35044,150.491948 371.059265,148.910345 C370.76809,147.328741 370.242753,145.915646 369.483236,144.671018 C368.72372,143.426389 367.716366,142.420408 366.461146,141.653046 C365.205926,140.885683 363.574379,140.554622 361.566458,140.659853 C359.627776,140.761455 357.987844,141.263967 356.646615,142.167403 C355.305385,143.07084 354.219208,144.203895 353.388049,145.566602 C352.556891,146.929309 351.976241,148.43508 351.646082,150.08396 C351.315924,151.732841 351.192575,153.353501 351.276034,154.945991 L352.702084,182.156648 L340.239188,182.809801 L338.660735,152.691134 C338.497446,149.575394 337.617977,147.0353 336.022301,145.070776 C334.426625,143.106251 332.036333,142.207461 328.851355,142.374379 C326.981911,142.472352 325.375691,142.95574 324.032647,143.824558 C322.689604,144.693375 321.618014,145.773595 320.817846,147.065249 C320.017679,148.356903 319.435214,149.828055 319.070436,151.47875 C318.705658,153.129444 318.566815,154.785631 318.653902,156.447359 L320.090838,183.865731 L307.627942,184.518884 L305.015331,134.667297 L316.855083,134.046802 L317.274189,142.043828 L317.481904,142.032942 C317.970497,140.757617 318.653116,139.54157 319.52978,138.384765 C320.406443,137.227959 321.461631,136.165956 322.695373,135.198724 C323.929116,134.231491 325.363223,133.444698 326.997736,132.838321 C328.632249,132.231943 330.453438,131.876145 332.46136,131.770914 C336.338725,131.56771 339.603631,132.264451 342.256178,133.861157 C344.908724,135.457864 347.00174,137.639291 348.535288,140.405503 C350.037355,137.271914 352.130494,134.81903 354.814768,133.046775 C357.499041,131.274521 360.710573,130.290435 364.449461,130.094489 Z M447.912028,152.797509 L447.999115,154.459229 C448.028144,155.013138 448.022554,155.568853 447.982344,156.126391 L410.074367,158.113064 C410.307189,159.906012 410.860722,161.525912 411.734983,162.972814 C412.609243,164.419716 413.732246,165.645276 415.104024,166.649531 C416.475803,167.653786 418.008862,168.423932 419.703248,168.959993 C421.397633,169.496053 423.144902,169.716908 424.945108,169.622563 C428.060847,169.459274 430.661941,168.750177 432.748467,167.495251 C434.834993,166.240325 436.518002,164.57264 437.797544,162.492146 L446.45449,168.703589 C441.886895,175.608134 434.929592,179.305285 425.582373,179.795152 C421.705008,179.998356 418.10752,179.579399 414.789802,178.538269 C411.472084,177.497139 408.560843,175.931373 406.055993,173.840924 C403.551142,171.750475 401.539304,169.13087 400.020418,165.982031 C398.501533,162.833192 397.635058,159.216286 397.420968,155.131205 C397.210506,151.115363 397.694165,147.427699 398.871958,144.068105 C400.049751,140.70851 401.7549,137.807321 403.987455,135.364452 C406.22001,132.921583 408.912481,130.975354 412.064948,129.525707 C415.217416,128.07606 418.663042,127.253275 422.40193,127.057328 C425.863863,126.875896 429.096039,127.279284 432.098555,128.267505 C435.10107,129.255725 437.734453,130.818696 439.998783,132.956465 C442.263112,135.094233 444.089082,137.810364 445.476748,141.104937 C446.864414,144.399511 447.676166,148.296996 447.912028,152.797509 Z M435.155212,147.842358 C435.071753,146.249869 434.766902,144.738434 434.240649,143.308009 C433.714397,141.877583 432.937582,140.63388 431.910182,139.576862 C430.882783,138.519845 429.607551,137.701473 428.084447,137.121721 C426.561344,136.54197 424.795858,136.304713 422.787937,136.409944 C419.049049,136.60589 415.940393,137.89701 413.461874,140.28334 C410.983355,142.669671 409.698168,145.635635 409.606274,149.181321 L435.155212,147.842358 Z M488.189605,138.397809 C487.005584,137.001856 485.416135,135.818098 483.421208,134.846501 C481.426282,133.874904 479.286413,133.448984 477.001537,133.568729 C474.993616,133.67396 473.180591,134.185543 471.562406,135.103495 C469.944222,136.021446 469.185943,137.449742 469.287545,139.388424 C469.389147,141.327107 470.37821,142.646471 472.254764,143.346556 C474.131318,144.046642 476.856912,144.719576 480.431627,145.365379 C482.322843,145.682838 484.238597,146.13786 486.178946,146.730459 C488.119296,147.323057 489.898315,148.149741 491.516058,149.210535 C493.1338,150.271328 494.471773,151.624477 495.530016,153.270024 C496.588259,154.91557 497.180873,156.949989 497.307875,159.373342 C497.467536,162.419843 497.03149,165.02888 495.999726,167.200532 C494.967962,169.372184 493.534542,171.165644 491.699423,172.580966 C489.864304,173.996289 487.698593,175.064421 485.202225,175.785395 C482.705858,176.506369 480.107559,176.937608 477.407251,177.079125 C473.529886,177.282329 469.719243,176.770402 465.975207,175.543328 C462.23117,174.316253 459.078579,172.450711 456.517337,169.946644 L464.3193,161.831199 C465.798418,163.558831 467.676611,164.953097 469.953935,166.014037 C472.231259,167.074978 474.720038,167.534683 477.420345,167.393166 C478.320448,167.345993 479.232404,167.194058 480.15624,166.937355 C481.080076,166.680653 481.92831,166.306417 482.700968,165.814636 C483.473627,165.322855 484.082325,164.683462 484.52708,163.896436 C484.971836,163.10941 485.165181,162.162002 485.107123,161.054184 C484.998264,158.977024 483.968232,157.538308 482.016996,156.737993 C480.065761,155.937678 477.162537,155.187268 473.307238,154.486741 C471.416023,154.169283 469.570414,153.727942 467.770356,153.162705 C465.970298,152.597468 464.349784,151.814548 462.908767,150.813922 C461.46775,149.813295 460.290098,148.538529 459.375775,146.989583 C458.461452,145.440638 457.942612,143.489137 457.819238,141.135023 C457.674092,138.365476 458.120116,135.946842 459.157323,133.879049 C460.19453,131.811255 461.61427,130.087939 463.416584,128.709051 C465.218897,127.330162 467.280752,126.267473 469.602208,125.520951 C471.923665,124.774429 474.330653,124.335859 476.823245,124.205228 C480.423655,124.016539 483.970122,124.455526 487.462751,125.522204 C490.955381,126.588882 493.772743,128.350495 495.914924,130.807094 L488.189605,138.397809 Z" id="Combined-Shape"></path>
        </g>
    </g>
</svg>