<?xml version="1.0" encoding="UTF-8" standalone="no"?>
<svg width="532px" height="265px" viewBox="0 0 532 265" version="1.1" xmlns="http://www.w3.org/2000/svg" xmlns:xlink="http://www.w3.org/1999/xlink">
    <!-- Generator: Sketch 43.2 (39069) - http://www.bohemiancoding.com/sketch -->
    <title>letters_header</title>
    <desc>Created with Sketch.</desc>
    <defs></defs>
    <g id="Page-1" stroke="none" stroke-width="1" fill="none" fill-rule="evenodd">
        <g id="letters_header" fill="#000000">
            <path d="M193.459206,74 L206.311206,74 L206.311206,134.792 L237.013206,134.792 L237.013206,146.216 L193.459206,146.216 L193.459206,74 Z M278.369206,116.84 C278.369206,115.275992 278.148208,113.780007 277.706206,112.352 C277.264204,110.923993 276.567211,109.666005 275.615206,108.578 C274.663201,107.489995 273.456213,106.623003 271.994206,105.977 C270.532199,105.330997 268.815216,105.008 266.843206,105.008 C263.171188,105.008 260.060219,106.112989 257.510206,108.323 C254.960193,110.533011 253.549207,113.371983 253.277206,116.84 L278.369206,116.84 Z M290.609206,122.348 L290.609206,123.98 C290.609206,124.524003 290.575206,125.067997 290.507206,125.612 L253.277206,125.612 C253.413207,127.380009 253.872202,128.994993 254.654206,130.457 C255.43621,131.919007 256.4732,133.176995 257.765206,134.231 C259.057213,135.285005 260.519198,136.117997 262.151206,136.73 C263.783214,137.342003 265.483197,137.648 267.251206,137.648 C270.311221,137.648 272.895196,137.087006 275.003206,135.965 C277.111217,134.842994 278.845199,133.29601 280.205206,131.324 L288.365206,137.852 C283.537182,144.380033 276.533252,147.644 267.353206,147.644 C263.545187,147.644 260.043222,147.049006 256.847206,145.859 C253.65119,144.668994 250.880218,142.986011 248.534206,140.81 C246.188194,138.633989 244.352213,135.965016 243.026206,132.803 C241.7002,129.640984 241.037206,126.05402 241.037206,122.042 C241.037206,118.09798 241.7002,114.511016 243.026206,111.281 C244.352213,108.050984 246.171195,105.297011 248.483206,103.019 C250.795218,100.740989 253.53219,98.9730063 256.694206,97.715 C259.856222,96.4569937 263.273188,95.828 266.945206,95.828 C270.345223,95.828 273.490192,96.3889944 276.380206,97.511 C279.270221,98.6330056 281.769196,100.298989 283.877206,102.509 C285.985217,104.719011 287.6342,107.472984 288.824206,110.771 C290.014212,114.069016 290.609206,117.927978 290.609206,122.348 Z M296.163206,107.048 L296.163206,97.256 L304.731206,97.256 L304.731206,83.078 L316.767206,83.078 L316.767206,97.256 L329.007206,97.256 L329.007206,107.048 L316.767206,107.048 L316.767206,129.794 C316.767206,131.970011 317.158202,133.771993 317.940206,135.2 C318.72221,136.628007 320.473193,137.342 323.193206,137.342 C324.00921,137.342 324.893201,137.257001 325.845206,137.087 C326.797211,136.916999 327.647202,136.662002 328.395206,136.322 L328.803206,145.91 C327.715201,146.318002 326.423214,146.640999 324.927206,146.879 C323.431199,147.117001 322.003213,147.236 320.643206,147.236 C317.37919,147.236 314.727216,146.777005 312.687206,145.859 C310.647196,144.940995 309.032212,143.683008 307.842206,142.085 C306.6522,140.486992 305.836208,138.65101 305.394206,136.577 C304.952204,134.50299 304.731206,132.276012 304.731206,129.896 L304.731206,107.048 L296.163206,107.048 Z M330.073206,107.048 L330.073206,97.256 L338.641206,97.256 L338.641206,83.078 L350.677206,83.078 L350.677206,97.256 L362.917206,97.256 L362.917206,107.048 L350.677206,107.048 L350.677206,129.794 C350.677206,131.970011 351.068202,133.771993 351.850206,135.2 C352.63221,136.628007 354.383193,137.342 357.103206,137.342 C357.91921,137.342 358.803201,137.257001 359.755206,137.087 C360.707211,136.916999 361.557202,136.662002 362.305206,136.322 L362.713206,145.91 C361.625201,146.318002 360.333214,146.640999 358.837206,146.879 C357.341199,147.117001 355.913213,147.236 354.553206,147.236 C351.28919,147.236 348.637216,146.777005 346.597206,145.859 C344.557196,144.940995 342.942212,143.683008 341.752206,142.085 C340.5622,140.486992 339.746208,138.65101 339.304206,136.577 C338.862204,134.50299 338.641206,132.276012 338.641206,129.896 L338.641206,107.048 L330.073206,107.048 Z M407.027206,116.84 C407.027206,115.275992 406.806208,113.780007 406.364206,112.352 C405.922204,110.923993 405.225211,109.666005 404.273206,108.578 C403.321201,107.489995 402.114213,106.623003 400.652206,105.977 C399.190199,105.330997 397.473216,105.008 395.501206,105.008 C391.829188,105.008 388.718219,106.112989 386.168206,108.323 C383.618193,110.533011 382.207207,113.371983 381.935206,116.84 L407.027206,116.84 Z M419.267206,122.348 L419.267206,123.98 C419.267206,124.524003 419.233206,125.067997 419.165206,125.612 L381.935206,125.612 C382.071207,127.380009 382.530202,128.994993 383.312206,130.457 C384.09421,131.919007 385.1312,133.176995 386.423206,134.231 C387.715213,135.285005 389.177198,136.117997 390.809206,136.73 C392.441214,137.342003 394.141197,137.648 395.909206,137.648 C398.969221,137.648 401.553196,137.087006 403.661206,135.965 C405.769217,134.842994 407.503199,133.29601 408.863206,131.324 L417.023206,137.852 C412.195182,144.380033 405.191252,147.644 396.011206,147.644 C392.203187,147.644 388.701222,147.049006 385.505206,145.859 C382.30919,144.668994 379.538218,142.986011 377.192206,140.81 C374.846194,138.633989 373.010213,135.965016 371.684206,132.803 C370.3582,129.640984 369.695206,126.05402 369.695206,122.042 C369.695206,118.09798 370.3582,114.511016 371.684206,111.281 C373.010213,108.050984 374.829195,105.297011 377.141206,103.019 C379.453218,100.740989 382.19019,98.9730063 385.352206,97.715 C388.514222,96.4569937 391.931188,95.828 395.603206,95.828 C399.003223,95.828 402.148192,96.3889944 405.038206,97.511 C407.928221,98.6330056 410.427196,100.298989 412.535206,102.509 C414.643217,104.719011 416.2922,107.472984 417.482206,110.771 C418.672212,114.069016 419.267206,117.927978 419.267206,122.348 Z M431.859206,97.256 L443.589206,97.256 L443.589206,105.416 L443.793206,105.416 C445.153213,102.559986 447.057194,100.248009 449.505206,98.48 C451.953218,96.7119912 454.80919,95.828 458.073206,95.828 C458.549209,95.828 459.059203,95.8449998 459.603206,95.879 C460.147209,95.9130002 460.623204,95.9979993 461.031206,96.134 L461.031206,107.354 C460.215202,107.149999 459.518209,107.014 458.940206,106.946 C458.362203,106.878 457.801209,106.844 457.257206,106.844 C454.469192,106.844 452.225215,107.353995 450.525206,108.374 C448.825198,109.394005 447.499211,110.617993 446.547206,112.046 C445.595201,113.474007 444.949208,114.935993 444.609206,116.432 C444.269204,117.928007 444.099206,119.117996 444.099206,120.002 L444.099206,146.216 L431.859206,146.216 L431.859206,97.256 Z M496.573206,110.312 C495.485201,108.883993 493.989216,107.643005 492.085206,106.589 C490.181197,105.534995 488.107217,105.008 485.863206,105.008 C483.891196,105.008 482.089214,105.415996 480.457206,106.232 C478.825198,107.048004 478.009206,108.40799 478.009206,110.312 C478.009206,112.21601 478.910197,113.558996 480.712206,114.341 C482.514215,115.123004 485.149189,115.921996 488.617206,116.738 C490.453215,117.146002 492.306197,117.689997 494.176206,118.37 C496.046215,119.050003 497.746198,119.950994 499.276206,121.073 C500.806214,122.195006 502.047201,123.588992 502.999206,125.255 C503.951211,126.921008 504.427206,128.943988 504.427206,131.324 C504.427206,134.316015 503.866212,136.84899 502.744206,138.923 C501.622201,140.99701 500.126215,142.679994 498.256206,143.972 C496.386197,145.264006 494.210219,146.198997 491.728206,146.777 C489.246194,147.355003 486.679219,147.644 484.027206,147.644 C480.219187,147.644 476.513224,146.947007 472.909206,145.553 C469.305188,144.158993 466.313218,142.170013 463.933206,139.586 L471.991206,132.038 C473.351213,133.806009 475.119195,135.267994 477.295206,136.424 C479.471217,137.580006 481.885193,138.158 484.537206,138.158 C485.421211,138.158 486.322202,138.056001 487.240206,137.852 C488.158211,137.647999 489.008202,137.325002 489.790206,136.883 C490.57221,136.440998 491.201204,135.846004 491.677206,135.098 C492.153209,134.349996 492.391206,133.432005 492.391206,132.344 C492.391206,130.30399 491.456215,128.842004 489.586206,127.958 C487.716197,127.073996 484.911225,126.190004 481.171206,125.306 C479.335197,124.897998 477.550215,124.371003 475.816206,123.725 C474.082197,123.078997 472.535213,122.229005 471.175206,121.175 C469.815199,120.120995 468.72721,118.812008 467.911206,117.248 C467.095202,115.683992 466.687206,113.746012 466.687206,111.434 C466.687206,108.713986 467.248201,106.36801 468.370206,104.396 C469.492212,102.42399 470.971197,100.809006 472.807206,99.551 C474.643215,98.2929937 476.717195,97.3580031 479.029206,96.746 C481.341218,96.1339969 483.721194,95.828 486.169206,95.828 C489.705224,95.828 493.156189,96.4399939 496.522206,97.664 C499.888223,98.8880061 502.557196,100.757987 504.529206,103.274 L496.573206,110.312 Z M309.272761,25.171916 C370.693144,51.761889 296.775914,137.936587 268.48127,154.370705 C209.989296,188.344059 295.029127,198.913794 290.864342,213.719983 C276.162732,258.643708 245.261372,250.263679 236.036737,247.004166 C229.045534,244.533835 206.565861,227.50609 181.864638,217.826498 C157.163414,208.146907 139.116497,210.863588 119.850344,217.826498 C100.58419,224.789409 93.3327858,236.041438 69.6583822,237.10115 C52.7402098,237.85844 45.6563657,216.703246 63.1376496,199.3478 C73.8142518,188.748053 84.5873091,177.753618 88.7353639,167.838974 C95.2588984,151.893262 80.7232101,155.111184 66.2491058,126.560218 C54.0564049,105.140447 77.9614781,80.048978 106.378731,63.5397883 C149.28519,38.6129998 212.561981,79.9166334 243.476266,58.3676274 C276.01234,35.6881427 284.986292,13.614801 309.272761,25.171916 Z" id="Combined-Shape"></path>
        </g>
    </g>
</svg>