<?xml version="1.0" encoding="UTF-8" standalone="no"?>
<svg width="342px" height="210px" viewBox="0 0 342 210" version="1.1" xmlns="http://www.w3.org/2000/svg" xmlns:xlink="http://www.w3.org/1999/xlink">
    <!-- Generator: Sketch 43.2 (39069) - http://www.bohemiancoding.com/sketch -->
    <title>frames</title>
    <desc>Created with Sketch.</desc>
    <defs></defs>
    <g id="Page-1" stroke="none" stroke-width="1" fill="none" fill-rule="evenodd">
        <g id="frames" stroke-width="8" stroke="#000000" fill="#000000">
            <path d="M21.4423266,103.184364 C-2.72537848,120.082986 6.04720478,150.632407 19.7168954,149.54788 C40.1924062,147.923392 61.469242,132.63318 64.7977946,181.471429 C65.8295521,196.609909 87.7697904,198.188067 92.5188126,199.66243 C118.657759,207.777431 159.059392,204.595995 167.41325,200.513868 C183.262898,192.768908 180.749823,191.954149 195.589779,168.205255 C210.429735,144.456361 235.52439,116.564599 249.525058,110.845897 C263.525725,105.127195 278.295741,125.189945 297.297557,122.079468 C316.299373,118.968991 327.060754,109.185649 331.651171,97.4023712 C336.241588,85.6190934 336.465278,79.7039521 336.241588,68.2723447 C336.017897,56.8407374 332.796416,50.0542192 330.638204,45.6351491 C328.479993,41.216079 313.501625,31.3257441 304.029376,28.4331132 C294.557127,25.5404823 286.326437,29.1469744 283.161413,31.1367089 C279.996388,33.1264434 271.772318,38.4811212 243.748138,36.1380221 C215.723959,33.7949231 220.696757,32.4638088 204.286962,20.7960017 C193.968388,13.4592174 144.331176,1.10938481 129.948516,7.98216984 C115.565856,14.8549549 94.6125052,29.6898497 100.439449,42.8222061 C106.266393,55.9545625 127.970259,69.3199312 105.407807,88.6811336 C82.8453545,108.042336 45.6100317,86.2857426 21.4423266,103.184364 Z"></path>
        </g>
    </g>
</svg>