<?xml version="1.0" encoding="UTF-8" standalone="no"?>
<svg width="259px" height="212px" viewBox="0 0 259 212" version="1.1" xmlns="http://www.w3.org/2000/svg" xmlns:xlink="http://www.w3.org/1999/xlink">
    <!-- Generator: Sketch 43.2 (39069) - http://www.bohemiancoding.com/sketch -->
    <title>letters</title>
    <desc>Created with Sketch.</desc>
    <defs></defs>
    <g id="Page-1" stroke="none" stroke-width="1" fill="none" fill-rule="evenodd">
        <g id="letters" stroke-width="8" stroke="#000000" fill="#000000">
            <path d="M232.939138,7.81461329 C211.388435,-2.44064244 203.42536,17.1462324 174.554335,37.2709708 C147.122411,56.3925742 90.9734775,19.7416169 52.9002467,41.86051 C27.6840746,56.5100106 6.47180487,78.7750339 17.2910506,97.7819598 C30.1347094,123.116783 43.033015,120.261345 37.2443286,134.410842 C33.5635342,143.208644 24.0040155,152.964603 14.5300865,162.370335 C-0.982006058,177.770764 5.30387349,196.542917 20.3162867,195.870932 C41.3238707,194.930592 47.7584358,184.946055 64.8543401,178.767487 C81.9502444,172.588919 97.9642539,170.17826 119.882991,178.767487 C141.801728,187.356714 161.749162,202.466357 167.952836,204.658416 C176.138356,207.550758 203.558811,214.986813 216.604348,175.123553 C220.299988,161.985217 144.839528,152.606118 196.742633,122.459715 C221.850007,107.87683 287.44078,31.4093404 232.939138,7.81461329 Z"></path>
        </g>
    </g>
</svg>